<svg xmlns="http://www.w3.org/2000/svg" viewBox="0 0 1600 1000" fill="none">
  <defs>
    <linearGradient id="sky" x1="0" y1="0" x2="1" y2="1">
      <stop offset="0%" stop-color="#f5ecd8" />
      <stop offset="100%" stop-color="#24494b" />
    </linearGradient>
    <linearGradient id="sun" x1="0" y1="0" x2="0" y2="1">
      <stop offset="0%" stop-color="#fff4d3" />
      <stop offset="100%" stop-color="#f0a867" />
    </linearGradient>
  </defs>

  <rect width="1600" height="1000" fill="url(#sky)" />
  <circle cx="1220" cy="270" r="186" fill="url(#sun)" />
  <path d="M0 810 340 560l260 178 205-140 252 190 258-232 285 254v190H0V810Z" fill="#19353b" />
  <path d="M0 896 220 742l201 108 152-128 204 176 225-122 232 120 200-116 266 180v40H0v-104Z" fill="#325d63" />
  <rect x="178" y="224" width="242" height="242" rx="40" fill="#f4ebda" fill-opacity=".82" />
  <rect x="255" y="302" width="86" height="86" rx="18" fill="#27484d" />
  <circle cx="756" cy="368" r="132" fill="#f4ebda" fill-opacity=".84" />
  <circle cx="756" cy="368" r="55" fill="#27484d" />
  <path d="M1010 164h186l84 220h-356l86-220Z" fill="#f4ebda" fill-opacity=".8" />
  <path d="M1112 542h198v208h-198z" fill="#f4ebda" fill-opacity=".85" />
  <path d="M1112 542v208l198-208h-198Z" fill="#27484d" fill-opacity=".86" />
  <path d="M538 206h98v304h-98z" fill="#27484d" />
  <path d="M492 312h190v98H492z" fill="#27484d" />
</svg>
